<svg width="140" height="140" viewBox="0 0 140 140" fill="none" xmlns="http://www.w3.org/2000/svg">
<g id="Frame 2">
<g id="Group">
<path id="Vector" d="M78.3486 108.754C78.3663 108.754 78.3823 108.762 78.4 108.762C78.5306 108.762 78.6613 108.753 78.7931 108.732C79.1985 108.668 79.6234 108.573 80.0366 108.496C80.4179 108.423 80.8008 108.359 81.179 108.279C82.2013 108.059 83.2503 107.807 84.3581 107.498C84.5554 107.443 84.7456 107.366 84.9422 107.309C85.5816 107.12 86.2084 106.908 86.837 106.695C87.7264 106.396 88.6059 106.076 89.4769 105.727C90.0235 105.508 90.5668 105.286 91.1042 105.048C92.0583 104.627 92.9929 104.169 93.9193 103.69C94.3518 103.467 94.7917 103.257 95.217 103.021C96.5221 102.299 97.8011 101.53 99.0394 100.697C99.0616 100.682 99.0851 100.669 99.1072 100.654C100.402 99.7796 101.65 98.8357 102.861 97.8455C103.121 97.6336 103.363 97.4042 103.619 97.1872C104.541 96.403 105.44 95.5928 106.306 94.7442C106.623 94.4332 106.928 94.1121 107.237 93.793C108 93.0056 108.738 92.1964 109.449 91.36C109.779 90.9732 110.105 90.5851 110.423 90.1886C110.654 89.9004 110.906 89.6314 111.131 89.338C111.182 89.2702 111.23 89.1987 111.275 89.126C111.911 88.2986 112.453 87.5393 112.952 86.8095L112.958 86.8007C113.665 85.765 114.254 84.8097 114.695 83.9437C118.972 76.6347 121.493 68.1964 121.67 59.1758C121.671 59.1656 121.678 59.1573 121.679 59.1471C122.094 55.4199 121.438 49.9582 119.734 44.1894C119.532 43.4764 119.325 42.7676 119.093 42.0675C118.996 41.7834 118.881 41.5002 118.78 41.2154C117.652 38.011 116.219 34.9585 114.508 32.0799C114.148 31.4705 113.818 30.8438 113.43 30.2526C113.403 30.2107 113.36 30.1837 113.33 30.1438C111.645 27.5745 109.725 25.1802 107.619 22.9586C107.571 22.8968 107.548 22.8233 107.493 22.7652C107.338 22.6009 107.167 22.4499 107.009 22.2876C106.752 22.0257 106.489 21.7714 106.226 21.5151C105.28 20.5838 104.297 19.6868 103.272 18.829C103.16 18.7363 103.054 18.6386 102.942 18.5468C101.742 17.5605 100.494 16.6234 99.1941 15.7422C99.0733 15.6602 98.9474 15.5863 98.8261 15.5053C98.1183 15.0341 97.4122 14.5609 96.6773 14.122C96.531 14.0342 96.374 13.9737 96.2164 13.9181C89.6513 10.0814 82.1758 7.67287 74.1837 7.09431C74.0683 7.06935 73.9608 7.02284 73.8406 7.01421C73.1613 6.96631 72.484 6.99356 71.8052 6.97385C71.354 6.96199 70.9144 6.90576 70.4605 6.90576C70.2618 6.90576 70.07 6.93335 69.8719 6.93564C68.716 6.9472 67.5668 7.01928 66.4169 7.11064C65.8554 7.15485 65.2914 7.18395 64.7351 7.24619C63.694 7.36432 62.6629 7.53886 61.631 7.72122C60.9543 7.83936 60.2741 7.94258 59.6067 8.08721C58.7404 8.27636 57.8869 8.51743 57.0298 8.7514C56.2493 8.96397 55.465 9.16221 54.6997 9.41022C54.5247 9.46675 54.3442 9.50155 54.1697 9.5601C54.0651 9.59523 53.981 9.66208 53.8837 9.7095C49.3846 11.2534 45.1603 13.3814 41.3215 16.0455C41.2799 16.071 41.2318 16.0753 41.1913 16.1035C40.1115 16.8545 39.0756 17.6559 38.0638 18.4831C37.8689 18.6425 37.6831 18.8113 37.4906 18.9735C36.5076 19.8018 35.5601 20.6642 34.6462 21.5592C34.4333 21.7676 34.2166 21.9706 34.0073 22.1827C32.9718 23.2324 31.9789 24.3179 31.0405 25.4462C30.9035 25.6112 30.7768 25.784 30.6417 25.9507C29.8027 26.9853 29.0086 28.051 28.2536 29.1423C28.1057 29.3565 27.9543 29.5673 27.8097 29.7838C21.4796 39.2293 18.3028 50.574 19.3393 61.7016C19.3451 61.7649 19.3776 61.8181 19.3881 61.88C20.3628 75.3789 26.5743 87.4172 36.0128 96.0149C36.1257 96.1795 36.2582 96.332 36.41 96.468C36.7514 96.7736 37.12 97.0433 37.4693 97.3389C37.7589 97.5833 38.0516 97.8222 38.3466 98.0602C39.2692 98.805 40.2121 99.5089 41.179 100.179C41.546 100.436 41.9102 100.694 42.2842 100.941C42.5166 101.093 42.7377 101.268 42.9719 101.416C43.0808 101.484 43.2021 101.52 43.3181 101.57C50.5243 106.093 58.9161 108.853 67.9256 109.297V115.073C64.8967 115.948 62.5278 118.324 61.6573 121.363H33.9061C32.5123 121.363 31.3823 122.493 31.3823 123.886C31.3823 125.28 32.5123 126.41 33.9061 126.41H61.6575C62.7599 130.258 66.2621 133.098 70.4493 133.098C74.6479 133.098 78.1596 130.258 79.2649 126.41H107.017C108.411 126.41 109.541 125.28 109.541 123.886C109.541 122.493 108.411 121.363 107.017 121.363H79.2649C78.3915 118.322 76.0134 115.944 72.9731 115.071V109.298C74.7922 109.209 76.5835 109.028 78.3486 108.754ZM111.251 79.8368C111.162 80.0041 111.079 80.1743 110.987 80.3403L111.344 77.9887L111.251 79.8368ZM110.2 81.6347C109.744 82.4038 109.306 83.1851 108.807 83.9249C108.781 83.9637 108.757 84.0001 108.73 84.0396C108.016 85.0928 107.243 86.1023 106.447 87.0912C106.159 87.4495 105.859 87.7963 105.561 88.1453C104.929 88.8839 104.277 89.6041 103.601 90.3015C103.31 90.6017 103.019 90.9014 102.72 91.1933C101.972 91.9245 101.194 92.6252 100.398 93.3048C100.136 93.5276 99.8839 93.7612 99.6179 93.978C97.4762 95.7249 95.1757 97.2815 92.7415 98.6274C92.3841 98.8247 92.0149 98.9989 91.6524 99.1868C90.7962 99.6311 89.928 100.055 89.0417 100.446C88.57 100.654 88.093 100.849 87.6143 101.04C86.823 101.358 86.0186 101.649 85.2067 101.923C84.6465 102.111 84.0879 102.303 83.5205 102.469C82.9732 102.631 82.4114 102.756 81.856 102.898C82.2595 102.455 82.7572 102.045 83.339 101.714C84.4123 101.058 85.7038 100.59 87.0716 100.093C87.8714 99.8037 88.6748 99.5117 89.5695 99.1296C95.3008 96.3681 96.1905 92.7785 96.7216 90.6331C96.8288 90.2018 96.9755 89.6103 96.9594 89.5228C96.9903 89.5117 97.0987 89.4858 97.4265 89.4858L98.3458 89.5006C98.6896 89.5006 99.0309 89.4846 99.5571 89.4069C101.8 88.9276 103.195 87.3392 104.316 86.0613C104.82 85.4871 105.297 84.9449 105.744 84.6171C106.166 84.309 106.601 84.0588 107.028 83.8087C107.965 83.2603 109.027 82.638 109.843 81.7533C110.047 81.5697 110.241 81.3762 110.429 81.1803C110.371 81.3092 110.278 81.4814 110.2 81.6347ZM110.19 61.5168C110.757 62.303 111.477 62.786 112.198 63.1015C112.166 63.1064 112.132 63.1101 112.098 63.115C111.808 63.1533 111.52 63.1927 111.232 63.2506C109.105 63.6757 107.799 64.7947 106.933 65.5352C106.693 65.741 106.364 66.0232 106.266 66.054C106.227 66.054 106.135 66.0331 105.987 65.9961C105.659 65.916 105.164 65.7952 104.522 65.7952C103.425 65.7952 102.231 66.1465 100.686 66.9203C96.4418 68.9684 95.4572 69.6437 94.6686 72.1316C94.5047 72.648 94.3075 73.2727 93.7727 74.2549C92.9027 74.7798 92.0894 75.2752 91.2761 75.7718C90.4579 76.2721 89.6384 76.7712 88.7598 77.3011C85.2971 77.6424 83.9822 79.0386 83.1122 81.0176C83.0469 81.1643 82.9151 81.3442 83.0334 81.3516C82.9274 81.3861 82.6957 81.4317 82.5232 81.4662C82.1535 81.5389 81.7826 81.6177 81.5152 81.7052C80.2373 82.0663 79.2355 82.797 78.4296 83.3836C78.1843 83.5623 77.9403 83.7422 77.6113 83.9578C76.3692 84.834 74.4505 85.4033 73.5879 85.4378C73.1456 85.1298 72.331 84.4421 71.6175 83.8063C73.4154 81.5352 73.7962 80.4594 73.4561 78.2413C73.4105 77.9505 73.3563 77.603 73.3205 77.1581C73.4635 76.8082 74.034 76.192 74.4259 75.7706C75.1147 75.0288 75.8935 74.1884 76.3741 73.1323C76.8683 72.091 77.0309 71.067 77.1739 70.165C77.2811 69.486 77.3821 68.8464 77.631 68.4582C77.8368 68.1169 78.453 67.7102 79.0494 67.3172C79.3538 67.1163 79.6606 66.9142 79.9329 66.717C84.7462 63.3233 85.2589 58.8354 85.5977 55.8656C85.6988 54.9857 85.8504 53.6537 86.2287 53.3406C86.6957 53.2088 87.1159 52.9438 87.4375 52.5791C88.6021 51.2544 89.1011 49.9703 88.9631 48.653C88.7696 46.8009 87.3907 45.7744 86.5675 45.162C86.5022 45.1127 86.4369 45.0659 86.3728 45.019C86.347 44.817 86.3001 44.5717 86.2102 44.276C85.4301 42.0949 83.127 41.1793 81.2761 40.4448C80.6292 40.1873 79.6507 39.7991 79.286 39.4578C78.8337 39.0339 78.3531 38.7726 77.8837 38.6075C77.5041 36.7615 77.1505 32.8429 77.4893 31.2582C77.7839 30.228 77.8763 30.1577 78.1843 29.9236C78.5479 29.6488 79.095 29.2335 79.6495 28.5447C80.4616 27.6032 80.8966 26.5348 81.2466 25.6759C81.4955 25.066 81.7308 24.4893 82.0032 24.2107C82.745 23.4418 84.623 23.0462 86.2816 22.6975C88.6254 22.2046 91.0493 21.6957 92.57 19.9335C92.846 19.6156 93.0604 19.3531 93.2342 19.1362L93.5398 19.1325C93.6186 19.1399 93.9082 19.1535 93.9871 19.1535C94.3313 19.1535 94.6542 19.1105 94.9598 19.0531C95.2061 19.2079 95.4626 19.3473 95.7058 19.5067C96.3452 19.9249 96.9552 20.3742 97.5689 20.8202C98.216 21.2912 98.8689 21.7548 99.4901 22.2579C100.105 22.7565 100.683 23.29 101.268 23.8174C101.713 24.217 102.166 24.6074 102.595 25.0238C101.775 27.7262 103.59 29.3842 104.261 29.9951C104.312 30.0407 104.363 30.0851 104.404 30.1184C104.426 30.2268 104.442 30.3451 104.463 30.4634C104.927 33.1264 106.199 34.4769 108.241 34.4769C108.369 34.4769 108.666 34.4572 108.792 34.4387C109.171 34.3808 109.516 34.2613 109.833 34.0926C110.065 34.4712 110.303 34.8452 110.525 35.2308C110.803 35.7203 111.091 36.2027 111.352 36.7038C111.568 37.1139 111.753 37.5414 111.957 37.9587C112.589 39.2705 113.167 40.6007 113.677 41.9421C113.831 42.3526 113.987 42.7624 114.13 43.1784C114.345 43.7902 114.55 44.4008 114.739 45.0084C115.778 48.4986 116.38 52.1657 116.561 55.9448C115.743 55.8263 114.923 55.7037 114.092 55.5736C113.819 55.5379 113.566 55.5231 113.331 55.5231C111.69 55.5231 110.341 56.3117 109.722 57.6327C109.115 58.929 109.341 60.5075 110.19 61.5168ZM70.9299 12.4202C70.6083 12.6963 70.2485 13.0598 69.9577 13.5502C69.4426 14.4214 69.3699 15.3161 69.3859 16.0025C68.0427 16.2576 67.2183 17.1497 66.7242 17.6845C66.5011 17.6377 66.2288 17.5958 65.9195 17.5958C65.1148 17.5958 63.6348 17.8891 62.7685 19.8373L62.076 21.3764C62.0526 21.4282 62.0304 21.4787 62.0094 21.5255C61.9811 20.6161 62.0932 19.4257 62.4062 18.8909C63.0285 18.0924 63.2233 17.0018 62.8745 15.8545C62.7451 15.4972 62.5221 15.0868 62.1623 14.7381C62.1894 14.3955 62.1783 14.0049 62.0711 13.6044C62.0018 13.3054 61.9047 13.0392 61.79 12.7971C62.5498 12.6522 63.3242 12.5513 64.0965 12.444C64.7122 12.3578 65.3234 12.2432 65.9424 12.182C66.9811 12.0807 68.0396 12.0532 69.0971 12.0222C69.5974 12.0083 70.0945 11.9567 70.5958 11.9601C70.6434 11.9602 70.6894 11.9669 70.7369 11.9672C70.7984 12.1296 70.8652 12.2824 70.9299 12.4202ZM43.5979 22.2157C44.0083 22.4436 44.4285 22.647 44.8462 22.8478C46.6811 23.7301 47.4414 24.0961 47.3995 27.1645C47.3749 28.9501 47.0693 30.78 46.7464 32.7184C46.1488 36.3043 45.5314 40.0123 46.6589 43.7917L46.8857 44.5298C47.0742 45.1287 47.4242 46.2439 47.3453 46.5446C47.3453 46.5446 47.2467 46.5914 46.9682 46.5914C46.3632 46.5914 45.5326 46.3795 44.7994 46.1921C44.1019 46.0135 43.4574 45.8607 42.9263 45.8027C42.7156 45.7793 42.4913 45.7682 42.2547 45.7682C38.4408 45.7682 30.7071 49.3714 29.8173 50.2648C28.6516 51.385 28.6627 52.8292 28.6689 53.6918C28.6689 53.7953 28.6701 53.9259 28.6676 54.043C28.4939 54.0923 28.2055 54.1502 27.7594 54.1835L27.2357 54.2205C26.1317 54.2999 25.2183 54.409 24.4287 54.5869C25.1245 45.5751 28.415 37.3005 33.5543 30.4698C34.0342 29.8338 34.4952 29.1853 35.0083 28.5727C35.4458 28.0496 35.9236 27.5634 36.3833 27.0602C36.986 26.4011 37.5852 25.7397 38.2271 25.1138C38.7129 24.64 39.2272 24.1969 39.7334 23.7446C40.4085 23.1416 41.0893 22.5447 41.802 21.9798C42.0185 21.8081 42.2466 21.651 42.4662 21.4829C42.8298 21.7552 43.2073 22.0026 43.5979 22.2157ZM24.426 61.6885C24.8882 60.1942 25.1509 59.6579 25.2604 59.5439C25.5204 59.4046 26.6233 59.3246 27.5968 59.2555L28.1316 59.2161C33.6017 58.8107 33.7224 55.1348 33.7163 53.7633C35.6645 52.7811 40.325 50.8206 42.3767 50.8206H42.3829C42.7132 50.8563 43.1124 50.9697 43.5499 51.0818C44.5209 51.3295 45.7285 51.6388 46.9682 51.6388C49.3219 51.6388 50.6638 50.5186 51.3724 49.5821C53.0643 47.3542 52.2436 44.7442 51.7014 43.0165L51.4993 42.3622C50.702 39.6894 51.1986 36.706 51.7248 33.5477C52.0649 31.5095 52.4161 29.4035 52.4469 27.2347C52.5309 21.0268 49.314 19.3983 47.1247 18.3452C49.3504 17.0357 51.6911 15.9145 54.1339 14.9875C54.8069 15.3691 55.7114 15.6377 56.9743 15.6895C56.994 16.366 57.19 16.9982 57.5289 17.5231C56.6281 20.1454 56.8647 23.6611 57.6508 24.7813C58.3348 25.979 60.2583 27.2729 62.1721 27.2729C63.5608 27.2729 64.7833 26.6395 65.4586 25.6796C65.9047 25.1719 66.0082 24.9414 66.681 23.443L66.9595 22.8244C67.0211 22.8281 67.2627 22.8133 67.3255 22.8121C68.9299 22.7381 69.9071 21.6784 70.4333 21.1091C70.4728 21.0647 70.5122 21.0203 70.5516 20.976C74.1893 20.8491 74.4765 17.6969 74.474 16.6137L74.4506 16.2169C74.4469 16.1701 74.4432 16.1232 74.4382 16.0752C74.9484 15.6809 75.7962 15.0228 76.1992 13.6538C76.3047 13.1849 76.2928 12.7554 76.2384 12.3545C80.8285 12.9307 85.2064 14.1744 89.2788 15.9992C89.1389 16.1741 88.9782 16.3717 88.7561 16.6272C88.3421 17.1066 86.4764 17.4985 85.2429 17.7585C82.8732 18.2563 80.1881 18.8219 78.3828 20.6938C77.4302 21.6673 76.9545 22.8342 76.5725 23.7708C76.3298 24.3685 76.0993 24.9316 75.7753 25.3099C75.5534 25.5847 75.3957 25.7042 75.1357 25.9026C73.9798 26.7788 73.2762 27.6328 72.5972 30.0295C71.9773 32.8798 72.4777 40.361 73.9515 42.255C74.3791 42.8034 75.1788 43.263 75.8714 43.3283C75.9293 43.3332 75.9884 43.3382 76.0451 43.3431C76.9742 44.1675 78.2115 44.6591 79.4129 45.136C80.0094 45.3726 80.9484 45.7448 81.3858 46.0344C81.4055 46.2303 81.44 46.4558 81.5103 46.6912C81.8529 47.8791 82.7229 48.5864 83.4117 49.104C81.1295 50.5075 80.819 53.2247 80.5836 55.2937C80.2768 57.9715 79.9884 60.5014 77.0014 62.6086C76.7635 62.7798 76.5159 62.9425 76.2706 63.1039C75.307 63.7398 74.1068 64.5309 73.3477 65.7891C72.5639 67.009 72.3557 68.3202 72.1881 69.3738C72.0908 69.9961 71.9971 70.5826 71.7975 71.0053C71.6373 71.3553 71.1752 71.8531 70.7266 72.3362C69.7297 73.4095 68.4888 74.7465 68.2707 76.7181C68.2559 76.8562 68.2522 76.9954 68.2596 77.1347C68.304 77.9394 68.3927 78.5296 68.4666 79.0077C68.4974 79.2111 68.5344 79.3725 68.559 79.3922C68.3988 79.8198 67.0852 81.3848 66.6687 81.8814C65.8308 82.8599 65.7494 83.8062 65.8406 84.5123C66.0908 86.0564 70.2436 89.4193 71.8739 90.1858L71.864 90.2129C72.3446 90.3977 72.8831 90.4877 73.5066 90.4877C75.5608 90.4877 78.5762 89.4538 80.4407 88.1365C80.7648 87.9257 81.0839 87.6953 81.4019 87.4637C81.9564 87.0595 82.4801 86.6775 82.9767 86.5357C83.1443 86.4815 83.3205 86.4532 83.4955 86.4187C84.177 86.2856 85.2047 86.0835 86.1905 85.285C87.0864 84.5173 87.4745 83.6349 87.7321 83.0508C87.8023 82.8906 87.8985 82.6701 87.9268 82.6294C87.9268 82.6294 88.2706 82.378 89.5448 82.2979C90.002 82.2979 90.4505 82.1735 90.8424 81.9381C91.9329 81.285 92.92 80.6824 93.9071 80.0798C94.883 79.4834 95.859 78.8882 96.936 78.2412C97.2959 78.0256 97.5965 77.7237 97.8097 77.3638C98.8756 75.5647 99.2392 74.4162 99.4807 73.6559C99.5361 73.4809 99.5706 73.333 99.5916 73.2653C99.9477 72.8808 102.155 71.8149 102.911 71.4501C104.092 70.8598 104.483 70.8426 104.522 70.8426C104.556 70.8426 104.68 70.8722 104.788 70.8993C105.314 71.0274 106.108 71.2591 107.58 70.9436C108.735 70.6381 109.556 69.9344 110.216 69.37C110.871 68.8093 111.387 68.3669 112.221 68.1993C112.397 68.1648 112.575 68.1427 112.755 68.1192C113.734 67.9911 114.746 67.7885 115.779 67.1658C115.18 70.1864 114.288 73.101 113.13 75.8801C112.721 75.711 112.259 75.5708 111.712 75.492C109.175 75.1272 107.773 76.6441 106.958 77.5055C106.802 77.6719 106.645 77.8419 106.315 78.15C105.844 78.6528 105.211 79.0237 104.479 79.4525C103.906 79.7877 103.329 80.1302 102.765 80.5431C101.869 81.1986 101.154 82.0132 100.523 82.7316C99.7961 83.5597 99.1098 84.341 98.6933 84.4371C98.5787 84.4531 98.4628 84.4531 98.3457 84.4531L97.4264 84.4383C96.8571 84.4383 96.0993 84.4753 95.1406 84.8178C92.708 85.8456 92.1967 87.9109 91.822 89.4192C91.3846 91.1838 90.9718 92.8511 87.4893 94.5319C86.7882 94.8289 86.0685 95.0889 85.3526 95.3489C83.8097 95.9071 82.214 96.4851 80.7734 97.3674C78.1001 98.8899 76.2928 101.364 75.8565 104.035C74.0832 104.243 72.2885 104.378 70.4605 104.378C62.6604 104.378 55.3157 102.418 48.8643 98.9917C49.7492 98.185 50.3709 97.0174 50.6466 95.3969C50.8426 94.3187 51.0175 93.774 51.1223 93.5165C51.1346 93.514 51.147 93.5116 51.1593 93.5091C51.7458 93.3858 52.7267 93.1801 53.7791 92.4481C56.2153 90.8104 56.3743 88.2263 56.479 86.5171C56.5061 86.0686 56.548 85.3908 56.5591 85.3366C61.3059 80.6576 59.6534 77.4229 58.2523 75.9195C57.3441 74.9374 56.3558 74.5628 55.4846 74.2325C54.9449 74.0292 54.3509 73.8037 53.5857 73.3773C53.4612 71.3342 52.2117 69.8665 49.6337 68.7008C49.5499 68.5997 49.4612 68.4629 49.2899 68.2227C46.7194 64.6712 45.8531 63.4747 43.7286 63.4747C43.5832 63.4747 43.4292 63.4833 43.237 63.503C43.2222 63.4919 43.2062 63.4808 43.1914 63.4698C42.1464 62.691 40.399 61.386 38.2807 61.386C37.1655 61.386 36.0996 61.7556 35.2198 62.4371C33.8766 63.4525 33.4305 64.8807 33.1039 65.9232C33.0287 66.1635 32.9548 66.4051 32.8513 66.6712C32.6578 67.1814 32.0639 68.0132 31.4884 68.8179C29.7336 71.2713 26.7983 75.3773 30.0023 79.1826C30.261 79.5054 30.5605 79.7938 30.8685 80.076C30.9844 80.1807 31.1113 80.2768 31.1729 80.352C31.2345 80.4629 31.2727 80.5886 31.3196 80.7118C31.4798 81.137 31.7004 81.7198 32.059 82.2078C32.7269 83.2208 33.6843 83.7876 34.383 84.2004C34.6505 84.3582 35.0534 84.5972 35.083 84.6095C35.1606 84.8227 35.0731 85.5682 35.0214 86.0143C34.9758 86.4074 34.9314 86.7993 34.9178 87.0852C34.9004 87.2713 34.9061 87.4544 34.9 87.6393C28.9588 80.484 25.172 71.506 24.426 61.6885ZM41.3547 94.0168C41.2435 93.9261 41.1266 93.8446 41.0161 93.7529C40.8821 93.6419 40.7629 93.5144 40.6301 93.4019C40.5819 92.4415 40.4168 91.5042 40.2523 90.5887C40.0514 89.4723 39.8629 88.4175 39.9504 87.4575C39.9652 87.1753 40.0009 86.8882 40.0342 86.5999C40.1882 85.2862 40.3977 83.4884 39.2541 81.7767C38.5653 80.8106 37.6324 80.2586 36.9522 79.8556C36.7082 79.7114 36.3398 79.4945 36.2129 79.3442C36.1315 79.2136 36.0921 79.0657 36.0403 78.9265C35.8777 78.4964 35.7039 78.0823 35.4538 77.6781C35.0718 77.0805 34.6121 76.659 34.2757 76.351C34.1611 76.2462 34.0403 76.1501 33.9048 75.9813C33.3453 75.3171 33.7236 74.3682 35.5942 71.7546C36.3928 70.6357 37.1481 69.5808 37.5597 68.4866C37.6953 68.1453 37.8087 67.7879 37.9208 67.4305C38.0292 67.0855 38.1919 66.5655 38.2806 66.4336C38.723 66.4336 39.7384 67.1914 40.1722 67.5155C40.797 67.9813 41.3465 68.3905 42.0686 68.5445C42.4815 68.6517 42.8585 68.6652 43.243 68.595L43.2677 68.5913C43.7138 69.1286 44.4876 70.197 45.3022 71.3245C45.6731 71.8433 46.2313 72.6295 47.3736 73.2222C48.0267 73.5007 48.3742 73.7225 48.5431 73.8495C48.5086 74.4151 48.4543 75.7965 49.6644 76.855C49.7519 76.9314 49.8444 77.0017 49.9405 77.0645C51.6225 78.1686 52.8708 78.6406 53.6965 78.9536C54.2855 79.1767 54.458 79.2506 54.6404 79.4588C54.6465 79.5229 54.6515 80.1304 53.0163 81.7423C52.7562 81.9986 52.5517 82.2007 52.4272 82.4065C51.5991 83.6203 51.5153 84.9955 51.4402 86.2093C51.3625 87.481 51.2788 88.0479 50.93 88.282C50.6996 88.4422 50.5431 88.4804 50.1241 88.5691C47.508 89.1175 46.3866 90.6122 45.6755 94.521C45.6238 94.8254 45.5659 95.0337 45.519 95.1704C45.2097 95.184 44.776 95.2111 44.3521 95.375C44.0834 95.4709 43.8508 95.5923 43.6389 95.7259C42.865 95.1717 42.0919 94.6165 41.3547 94.0168ZM74.6132 123.886C74.6132 126.182 72.7451 128.05 70.4493 128.05C68.1672 128.05 66.3101 126.182 66.3101 123.886C66.3101 121.59 68.1672 119.722 70.4493 119.722C72.7451 119.722 74.6132 121.59 74.6132 123.886Z" fill="#EFF3FF"/>
</g>
</g>
</svg>
