<svg width="140" height="140" viewBox="0 0 140 140" fill="none" xmlns="http://www.w3.org/2000/svg">
<g id="Frame 3">
<g id="Group">
<g id="Group_2">
<path id="Vector" d="M131.293 126.427L127.962 115.064C127.179 112.908 125.219 111.537 123.064 111.145L114.835 109.969L113.856 105.267C116.403 102.916 117.774 99.7812 117.774 96.2544V91.944C118.166 90.3766 119.929 83.3231 116.207 78.229C111.504 71.7634 98.5731 71.9593 93.6749 78.6209C91.1278 81.9517 90.7359 86.458 92.3034 91.944V96.2544C92.3034 99.5852 93.6749 102.916 96.2219 105.267L95.2423 109.969L90.9319 110.361C90.54 110.165 90.3441 110.165 90.1481 110.165L81.1354 108.794L80.1558 103.504C82.7029 101.153 84.2703 97.6259 84.2703 94.0992V89.5929C84.6621 88.0254 86.6214 80.3842 82.7029 75.0941C80.1558 71.5674 76.2372 70 70.7512 70C69.3797 70 62.7181 70.1959 58.7996 75.2901C56.2525 78.8168 55.6647 83.5191 57.2321 89.3969V94.0992C57.2321 97.8219 58.7996 101.153 61.3466 103.504L60.367 108.598C51.1584 109.969 51.3543 109.774 50.1787 110.361L45.4764 109.969L44.4968 105.267C49.7868 100.369 48.0235 94.2952 48.4153 92.1399C49.9828 86.458 49.395 82.1476 47.0438 78.8168C43.5171 74.1145 37.0515 73.9186 35.68 73.9186C30.5858 73.9186 26.6673 75.486 24.5121 78.6209C20.7894 83.715 22.5528 90.7684 22.9446 92.3359C23.1406 94.4911 21.5731 100.565 26.8632 105.463L25.8836 110.165L17.4586 111.145C15.3034 111.537 13.3441 112.908 12.5604 115.26L9.42555 126.232C8.24998 129.366 10.6011 132.697 13.9319 132.697C36.2678 132.697 104.451 132.697 126.787 132.697C130.118 132.697 132.469 129.17 131.293 126.427ZM110.133 107.618L110.525 107.422L111.308 110.949C110.133 112.125 108.37 113.496 105.235 113.888C102.1 113.496 100.336 112.125 99.1609 110.949L99.9446 107.422C99.9446 107.618 104.451 110.753 110.133 107.618ZM113.856 96.2544C113.856 102.524 106.41 106.835 101.904 104.288C101.512 103.896 96.2219 102.132 96.2219 96.2544V91.944C96.4179 91.1603 97.2016 89.0051 98.5731 86.8499C99.7487 85.0865 102.296 84.4987 103.667 85.8702C105.431 87.6336 110.329 88.8092 114.247 88.4173L114.051 91.5522V96.2544H113.856ZM96.8097 80.972C100.532 76.2697 113.268 75.486 114.443 84.4987C110.917 84.8906 106.998 83.9109 106.214 83.1272C103.079 80.1883 97.7894 80.972 95.4382 84.4987C95.6342 82.9313 96.2219 81.9516 96.8097 80.972ZM70.7512 107.618C74.082 107.618 76.2372 106.051 76.6291 106.051L77.4128 109.969C76.2372 111.145 74.2779 112.712 70.7512 113.104C67.2245 112.712 65.2652 111.145 64.0896 109.774L64.8734 105.855C65.2652 106.051 67.4204 107.618 70.7512 107.618ZM61.9344 77.6412C64.6774 73.9186 70.3594 73.9186 70.7512 73.9186C74.8657 73.9186 77.8046 75.0941 79.3721 77.2494C80.1558 78.4249 80.7436 79.7964 80.9395 81.1679C80.1558 81.3639 79.1761 81.3639 78.3924 81.3639C74.2779 81.3639 71.5349 79.7964 71.1431 79.0127C69.7716 76.6616 66.4408 75.8779 64.2856 77.4453C62.7181 78.4249 61.3466 80.1883 60.367 81.7557C60.5629 80.1883 61.1507 78.8168 61.9344 77.6412ZM61.1507 89.3969C61.7385 87.4377 63.8937 82.3435 66.4408 80.5801C66.8326 80.1883 67.6164 80.5801 67.8123 80.972C69.5756 83.715 75.2576 85.6743 80.3517 85.0865L80.1558 89.0051V93.9033C80.1558 100.369 74.2779 102.328 73.8861 102.524C68.7919 105.267 60.9548 100.565 60.9548 93.9033V89.3969H61.1507ZM35.68 108.99C38.8148 108.99 40.7741 107.618 40.9701 107.422L41.7538 110.949C40.5782 112.125 38.8148 113.496 35.68 113.888C32.5451 113.496 30.7818 112.125 29.6062 110.949L30.3899 107.422C30.5858 107.618 32.5451 108.99 35.68 108.99ZM27.6469 80.5801C29.2143 78.6209 31.9573 77.4453 35.8759 77.4453C36.0718 77.4453 41.3619 77.4453 43.909 80.972C44.6927 81.9516 45.0846 83.1272 45.2805 84.3028C43.909 82.3435 41.5578 81.1679 39.2067 81.1679C34.3085 81.1679 35.2881 85.2824 26.2754 84.1069C26.4713 82.9313 26.8632 81.5598 27.6469 80.5801ZM26.2754 88.0254C35.4841 88.8092 36.6596 85.0865 39.0108 85.0865C42.1456 85.0865 43.5171 89.0051 44.3008 91.944V96.2544C44.3008 102.132 38.8148 104.092 38.6189 104.288C34.3085 106.639 26.6673 102.916 26.6673 96.2544C26.8632 90.7684 26.8632 92.3359 26.2754 88.0254ZM13.1482 127.407L16.2831 116.435C16.6749 115.651 17.2627 115.064 18.0464 115.064L26.6673 113.692C28.8225 116.043 31.7614 117.611 35.2881 118.003H35.4841H35.68C39.4026 117.611 42.1456 116.043 44.3008 113.692L46.0642 113.888C45.6724 114.672 46.0642 113.888 42.5375 126.036C42.1456 127.015 42.1456 127.995 42.3416 128.975H13.9319C13.3441 128.779 12.7563 128.191 13.1482 127.407ZM47.6316 128.779C45.4764 128.779 47.2398 126.036 49.9828 115.455C50.9624 113.104 53.3136 114.084 61.3466 112.517C63.6978 115.064 66.6367 116.631 70.5553 117.023C70.5553 117.023 70.7512 117.023 70.9471 117.023H71.1431C75.0617 116.631 78.0006 115.064 80.3517 112.517L89.1685 113.888C90.3441 115.455 93.0871 121.921 95.0464 127.407C95.8301 129.366 96.4179 128.779 47.6316 128.779ZM126.787 128.779H98.769C98.9649 127.799 98.9649 126.819 98.5731 125.84C96.4179 119.766 94.6545 116.239 93.4789 113.888L95.8301 113.692C97.9853 116.239 100.924 117.611 104.451 118.003H104.647H104.843C108.37 117.611 111.308 116.043 113.464 113.692L122.085 115.064C122.868 115.26 123.652 115.651 123.848 116.239L127.179 127.603C127.766 128.191 127.375 128.779 126.787 128.779Z" fill="#EFF3FF"/>
</g>
<g id="Group_3">
<path id="Vector_2" d="M63.5021 64.9057C63.698 65.8854 64.4817 66.4732 65.4614 66.4732H76.0415C77.0212 66.4732 77.8049 65.6895 78.0008 64.9057C79.9601 54.1297 79.1764 52.5622 82.899 49.0355C93.4792 38.4554 86.0339 20.0381 70.9474 20.0381H70.7515C56.2527 20.234 48.4156 38.0635 58.7998 48.8396C62.3265 52.7582 61.5428 54.3256 63.5021 64.9057ZM67.2247 62.5546L66.637 59.2238H75.0619L74.4741 62.5546H67.2247ZM70.5555 23.9567H70.7515C82.3112 23.9567 88.1891 38.0635 79.9601 46.2925C77.413 48.8396 75.8456 52.1704 75.4537 55.5012H72.7107V41.1984C73.4945 41.0025 74.2782 40.4147 75.0619 39.8269C75.8456 39.0432 75.8456 37.8676 75.0619 37.0839C74.2782 36.3002 73.1026 36.3002 72.3189 37.0839C71.927 37.4757 71.3392 37.6717 70.9474 37.6717C70.3596 37.6717 69.9677 37.4757 69.5759 37.0839C68.7922 36.3002 67.6166 36.3002 66.8329 37.0839C66.0492 37.8676 66.0492 39.0432 66.8329 39.8269C67.4207 40.4147 68.2044 41.0025 69.184 41.1984V55.5012H66.441C66.0492 52.1704 64.2858 48.8396 61.7387 46.0966C53.3138 37.8676 59.3876 24.1526 70.5555 23.9567Z" fill="#EFF3FF"/>
</g>
<g id="Group_4">
<path id="Vector_3" d="M70.751 16.3155C71.9266 16.3155 72.7103 15.5317 72.7103 14.3562V9.26202C72.7103 8.08645 71.9266 7.30273 70.751 7.30273C69.5755 7.30273 68.7917 8.08645 68.7917 9.26202V14.3562C68.7917 15.3358 69.7714 16.3155 70.751 16.3155Z" fill="#EFF3FF"/>
</g>
<g id="Group_5">
<path id="Vector_4" d="M60.1711 16.5115C60.563 17.4911 61.7385 18.0789 62.7182 17.4911C63.6978 17.0992 64.2856 15.9237 63.6978 14.944L61.7385 10.2417C61.3467 9.2621 60.1711 8.67432 59.1915 9.2621C58.2118 9.65396 57.624 10.8295 58.2118 11.8092L60.1711 16.5115Z" fill="#EFF3FF"/>
</g>
<g id="Group_6">
<path id="Vector_5" d="M78.7843 18.0789C79.764 18.4707 80.9396 18.0789 81.3314 17.0992L83.2907 12.3969C83.6826 11.4173 83.2907 10.2417 82.3111 9.84987C81.3314 9.45801 80.1558 9.84987 79.764 10.8295L77.8047 15.5318C77.4128 16.5114 77.8047 17.687 78.7843 18.0789Z" fill="#EFF3FF"/>
</g>
<g id="Group_7">
<path id="Vector_6" d="M97.985 62.3586H100.924V66.2772C100.924 67.8446 102.883 68.8242 104.059 67.8446L111.112 62.3586H126.199C128.354 62.3586 130.117 60.5952 130.117 58.44V39.4349C130.117 37.2797 128.354 35.5164 126.199 35.5164H97.985C95.8298 35.5164 94.0664 37.2797 94.0664 39.4349V58.44C94.0664 60.5952 95.8298 62.3586 97.985 62.3586ZM126.395 39.4349V58.44H110.524C110.133 58.44 109.741 58.6359 109.349 58.8319L104.842 62.1627V60.3993C104.842 59.2237 104.059 58.44 102.883 58.44H97.985V39.4349H126.395Z" fill="#EFF3FF"/>
</g>
<g id="Group_8">
<path id="Vector_7" d="M15.1075 62.3586H30.194L37.2475 67.8446C38.619 68.8242 40.3823 67.8446 40.3823 66.2772V62.3586H43.3213C45.4765 62.3586 47.2398 60.5952 47.2398 58.44V39.4349C47.2398 37.2797 45.4765 35.5164 43.3213 35.5164H15.1075C12.9523 35.5164 11.189 37.2797 11.189 39.4349V58.44C11.189 60.5952 12.9523 62.3586 15.1075 62.3586ZM43.5172 39.4349V58.44H38.619C37.4434 58.44 36.6597 59.2237 36.6597 60.3993V62.1627L32.1533 58.8319C31.7615 58.6359 31.3696 58.44 30.9778 58.44H15.1075V39.4349H43.5172Z" fill="#EFF3FF"/>
</g>
<g id="Group_9">
<path id="Vector_8" d="M105.431 50.4071H107.39C108.566 50.4071 109.349 49.6234 109.349 48.4478C109.349 47.2722 108.566 46.4885 107.39 46.4885H105.431C104.255 46.4885 103.471 47.2722 103.471 48.4478C103.471 49.4275 104.451 50.4071 105.431 50.4071Z" fill="#EFF3FF"/>
</g>
<g id="Group_10">
<path id="Vector_9" d="M116.99 50.4071H118.95C120.125 50.4071 120.909 49.6234 120.909 48.4478C120.909 47.2722 120.125 46.4885 118.95 46.4885H116.99C115.815 46.4885 115.031 47.2722 115.031 48.4478C115.031 49.4275 115.815 50.4071 116.99 50.4071Z" fill="#EFF3FF"/>
</g>
<g id="Group_11">
<path id="Vector_10" d="M22.5523 50.4071H24.5116C25.6872 50.4071 26.4709 49.6234 26.4709 48.4478C26.4709 47.2722 25.6872 46.4885 24.5116 46.4885H22.5523C21.3767 46.4885 20.593 47.2722 20.593 48.4478C20.593 49.4275 21.5727 50.4071 22.5523 50.4071Z" fill="#EFF3FF"/>
</g>
<g id="Group_12">
<path id="Vector_11" d="M34.1129 50.4071H36.0721C37.2477 50.4071 38.0314 49.6234 38.0314 48.4478C38.0314 47.2722 37.2477 46.4885 36.0721 46.4885H34.1129C32.9373 46.4885 32.1536 47.2722 32.1536 48.4478C32.1536 49.4275 32.9373 50.4071 34.1129 50.4071Z" fill="#EFF3FF"/>
</g>
</g>
</g>
</svg>
