<svg width="140" height="140" viewBox="0 0 140 140" fill="none" xmlns="http://www.w3.org/2000/svg">
<g id="Frame 1">
<path id="Vector" d="M70.5333 53.6301C63.6659 53.6301 56.9527 55.6666 51.2428 59.4821C45.533 63.2976 41.0828 68.7208 38.4552 75.0656C35.8276 81.4104 35.1406 88.3919 36.4811 95.1272C37.8216 101.863 41.1293 108.049 45.986 112.904C50.8426 117.76 57.0301 121.066 63.7657 122.404C70.5014 123.743 77.4827 123.054 83.8268 120.424C90.1709 117.795 95.5927 113.343 99.4066 107.632C103.221 101.921 105.255 95.2077 105.253 88.3403C105.241 79.1365 101.579 70.3132 95.0703 63.8061C88.5613 57.299 79.737 53.6393 70.5333 53.6301ZM70.5333 119.244C64.4225 119.244 58.4489 117.432 53.3678 114.037C48.2868 110.642 44.3265 105.817 41.9878 100.171C39.649 94.5258 39.0368 88.3135 40.2286 82.32C41.4203 76.3266 44.3625 70.8211 48.6831 66.4997C53.0037 62.1783 58.5087 59.2351 64.5019 58.0423C70.4952 56.8494 76.7076 57.4605 82.3535 59.7982C87.9995 62.136 92.8255 66.0954 96.2213 71.1758C99.6171 76.2562 101.43 82.2295 101.431 88.3403C101.423 96.5331 98.1659 104.388 92.3732 110.182C86.5806 115.976 78.7261 119.235 70.5333 119.244ZM85.9109 80.6865H77.9421V74.0939C78.0072 72.4205 77.6046 70.7622 76.7793 69.3051C75.954 67.8479 74.7389 66.6497 73.2703 65.8451C72.3699 65.3322 71.3451 65.0786 70.3095 65.1125C69.2738 65.1463 68.2678 65.4663 67.4029 66.0369C66.4061 66.7663 64.8283 68.5569 65.4583 72.3887C65.4583 72.4139 65.4667 72.4391 65.4723 72.4643C66.5097 77.4973 64.6757 78.8329 62.5533 80.3813C61.8815 80.8402 61.2555 81.363 60.6843 81.9423C60.4545 81.8905 60.2198 81.8642 59.9843 81.8639H52.4985C51.6445 81.8639 50.8254 82.2031 50.2216 82.807C49.6177 83.4109 49.2785 84.2299 49.2785 85.0839V101.444C49.2785 102.298 49.6177 103.117 50.2216 103.721C50.8254 104.325 51.6445 104.664 52.4985 104.664H59.9843C60.6675 104.664 61.3326 104.445 61.8827 104.04C63.002 104.795 64.3226 105.195 65.6725 105.188H83.3755C84.8729 105.172 86.3142 104.615 87.4334 103.62C88.5526 102.625 89.2743 101.259 89.4655 99.7741L91.7321 87.2273C91.8111 86.4345 91.7245 85.634 91.4778 84.8765C91.231 84.119 90.8294 83.4211 90.2985 82.8271C89.7722 82.1666 89.1053 81.6318 88.3463 81.2615C87.5873 80.8912 86.7553 80.6947 85.9109 80.6865ZM59.3879 100.846H53.0963V85.6803H59.3879V100.846ZM85.7079 99.0965C85.662 99.6944 85.4 100.255 84.9707 100.674C84.5414 101.093 83.9743 101.341 83.3755 101.371H65.6725C64.3579 101.371 63.2057 100.51 63.2057 99.5305V85.0839C63.2057 84.6751 63.7167 84.2579 64.8017 83.4669C67.1649 81.7449 70.7321 79.1437 69.2201 71.7349C69.0143 70.4469 69.1767 69.4697 69.6583 69.1169C69.9573 68.9751 70.2878 68.9128 70.6179 68.9361C70.948 68.9594 71.2665 69.0675 71.5427 69.2499C72.3802 69.7381 73.0653 70.4498 73.5213 71.3053C73.9772 72.1609 74.186 73.1264 74.1243 74.0939V82.6003C74.1243 83.1067 74.3255 83.5924 74.6836 83.9506C75.0417 84.3087 75.5274 84.5099 76.0339 84.5099H85.9109C86.1665 84.517 86.4178 84.5776 86.6486 84.6878C86.8793 84.798 87.0845 84.9553 87.2507 85.1497C87.6359 85.5373 87.8879 86.0374 87.9703 86.5777L85.7079 99.0965ZM70.5333 43.6915C61.6999 43.6915 53.0649 46.311 45.7203 51.2188C38.3758 56.1266 32.6516 63.1022 29.2717 71.2634C25.8919 79.4246 25.0081 88.4048 26.7322 97.0683C28.4563 105.732 32.7109 113.689 38.9578 119.935C45.2048 126.18 53.1635 130.433 61.8274 132.155C70.4913 133.877 79.4713 132.991 87.6317 129.609C95.792 126.227 102.766 120.501 107.672 113.155C112.578 105.809 115.195 97.1737 115.193 88.3403C115.178 76.5013 110.468 65.1516 102.096 56.7812C93.7231 48.4108 82.3723 43.7033 70.5333 43.6915ZM70.5333 129.182C62.4568 129.182 54.5617 126.788 47.8462 122.301C41.1308 117.814 35.8967 111.436 32.8057 103.975C29.7147 96.5131 28.9057 88.3025 30.4809 80.3811C32.0562 72.4597 35.9449 65.1833 41.6554 59.472C47.366 53.7607 54.6418 49.8709 62.563 48.2946C70.4842 46.7183 78.6949 47.5262 86.1569 50.6162C93.6189 53.7061 99.9971 58.9394 104.485 65.6542C108.973 72.369 111.369 80.2638 111.37 88.3403C111.36 99.1683 107.054 109.55 99.3984 117.207C91.7424 124.864 81.3613 129.171 70.5333 129.182ZM27.1151 58.5021C27.4739 58.4462 27.8094 58.2892 28.0822 58.0494C28.3549 57.8096 28.5537 57.497 28.6551 57.1483L31.0533 48.8603L39.3385 46.4593C39.6864 46.3582 39.9985 46.1601 40.2381 45.8883C40.4777 45.6165 40.635 45.2821 40.6917 44.9241C40.7484 44.5662 40.702 44.1996 40.5581 43.867C40.4142 43.5345 40.1786 43.2497 39.8789 43.0461L32.7333 38.2049L33.0133 29.5851C33.0255 29.2225 32.934 28.8639 32.7497 28.5514C32.5654 28.2389 32.2958 27.9854 31.9725 27.8207C31.6492 27.6559 31.2857 27.5868 30.9245 27.6213C30.5633 27.6559 30.2195 27.7927 29.9333 28.0157L23.1237 33.3063L15.0107 30.3803C14.6701 30.2586 14.3019 30.2363 13.9491 30.3158C13.5963 30.3953 13.2734 30.5735 13.0179 30.8295C12.7625 31.0856 12.5851 31.4089 12.5064 31.7619C12.4276 32.1149 12.4508 32.483 12.5733 32.8233L15.4993 40.9363L10.2031 47.7487C9.98005 48.0349 9.84326 48.3787 9.80872 48.7399C9.77418 49.1011 9.84332 49.4646 10.008 49.7879C10.1728 50.1112 10.4262 50.3808 10.7388 50.5651C11.0513 50.7495 11.4098 50.8409 11.7725 50.8287L20.3937 50.5487L25.2363 57.6887C25.411 57.9469 25.6463 58.1584 25.9215 58.3048C26.1968 58.4513 26.5037 58.5281 26.8155 58.5287C26.9159 58.5274 27.016 58.5185 27.1151 58.5021ZM22.9613 47.5373C22.7866 47.279 22.5514 47.0674 22.2761 46.9209C22.0008 46.7745 21.6939 46.6977 21.3821 46.6973H21.3219L15.7121 46.8779L19.1533 42.4483C19.3507 42.1937 19.4806 41.8934 19.5308 41.5752C19.581 41.257 19.5498 40.9312 19.4403 40.6283L17.5363 35.3489L22.8157 37.2529C23.118 37.3634 23.4434 37.3957 23.7616 37.3467C24.0798 37.2978 24.3805 37.1692 24.6357 36.9729L29.0695 33.5303L28.8889 39.1387C28.8792 39.461 28.9511 39.7806 29.098 40.0677C29.2448 40.3548 29.4618 40.6001 29.7289 40.7809L34.3741 43.9323L28.9827 45.4947C28.6734 45.5842 28.3919 45.7506 28.1642 45.9782C27.9366 46.2059 27.7702 46.4874 27.6807 46.7967L26.1183 52.1881L22.9613 47.5373ZM130.863 47.7487L125.573 40.9363L128.499 32.8233C128.622 32.4824 128.646 32.1135 128.567 31.7597C128.488 31.4059 128.31 31.082 128.053 30.8257C127.797 30.5694 127.473 30.3914 127.119 30.3125C126.766 30.2336 126.397 30.2571 126.056 30.3803L117.936 33.3063L111.133 28.0157C110.847 27.7927 110.503 27.6559 110.142 27.6213C109.781 27.5868 109.417 27.6559 109.094 27.8207C108.771 27.9854 108.501 28.2389 108.317 28.5514C108.132 28.8639 108.041 29.2225 108.053 29.5851L108.333 38.2049L101.193 43.0489C100.894 43.2525 100.658 43.5373 100.514 43.8698C100.37 44.2024 100.324 44.569 100.38 44.9269C100.437 45.2849 100.594 45.6193 100.834 45.8911C101.074 46.1629 101.386 46.361 101.734 46.4621L110.013 48.8603L112.414 57.1455C112.516 57.4942 112.714 57.8068 112.987 58.0466C113.26 58.2864 113.595 58.4434 113.954 58.4993C114.053 58.5148 114.154 58.5228 114.254 58.5231C114.566 58.5225 114.873 58.4457 115.148 58.2993C115.423 58.1528 115.658 57.9413 115.833 57.6831L120.676 50.5431L129.297 50.8231C129.659 50.8353 130.018 50.7439 130.331 50.5595C130.643 50.3752 130.897 50.1056 131.061 49.7823C131.226 49.459 131.295 49.0955 131.261 48.7343C131.226 48.3731 131.089 48.0293 130.866 47.7431L130.863 47.7487ZM119.745 46.7015C119.423 46.6919 119.104 46.7639 118.817 46.9107C118.53 47.0576 118.286 47.2746 118.105 47.5415L114.952 52.1867L113.39 46.7953C113.3 46.486 113.134 46.2045 112.906 45.9768C112.679 45.7492 112.397 45.5828 112.088 45.4933L106.697 43.9309L111.342 40.7795C111.609 40.5987 111.826 40.3533 111.973 40.0662C112.12 39.7792 112.192 39.4596 112.182 39.1373L112.001 33.5289L116.435 36.9715C116.69 37.1678 116.991 37.2964 117.309 37.3453C117.627 37.3943 117.953 37.362 118.255 37.2515L123.534 35.3475L121.63 40.6269C121.52 40.9292 121.488 41.2547 121.537 41.5729C121.586 41.8911 121.714 42.1917 121.91 42.4469L125.353 46.8807L119.745 46.7015ZM61.8029 26.1663L60.1817 34.6377C60.1131 34.9942 60.1476 35.3629 60.2811 35.7006C60.4146 36.0382 60.6416 36.3308 60.9355 36.544C61.2294 36.7572 61.578 36.8822 61.9404 36.9044C62.3028 36.9265 62.664 36.8449 62.9817 36.6691L70.5333 32.5097L78.0933 36.6691C78.4109 36.8449 78.7721 36.9265 79.1345 36.9044C79.497 36.8822 79.8455 36.7572 80.1394 36.544C80.4333 36.3308 80.6603 36.0382 80.7938 35.7006C80.9273 35.3629 80.9618 34.9942 80.8933 34.6377L79.2637 26.1663L85.5539 20.2667C85.8182 20.0187 86.0065 19.7007 86.0968 19.3497C86.187 18.9987 86.1756 18.6292 86.0637 18.2845C85.9518 17.9398 85.7442 17.634 85.465 17.4029C85.1858 17.1718 84.8466 17.025 84.4871 16.9795L75.9289 15.9043L72.2609 8.09788C72.1069 7.76968 71.8627 7.49212 71.5567 7.29769C71.2508 7.10326 70.8958 7 70.5333 7C70.1708 7 69.8158 7.10326 69.5098 7.29769C69.2038 7.49212 68.9596 7.76968 68.8057 8.09788L65.1377 15.9043L56.5795 16.9795C56.2199 17.025 55.8807 17.1718 55.6015 17.4029C55.3224 17.634 55.1147 17.9398 55.0028 18.2845C54.8909 18.6292 54.8795 18.9987 54.9698 19.3497C55.06 19.7007 55.2483 20.0187 55.5127 20.2667L61.8029 26.1663ZM66.6567 19.5611C66.9772 19.5222 67.2826 19.4027 67.5444 19.2137C67.8061 19.0247 68.0156 18.7723 68.1533 18.4803L70.5333 13.3983L72.9133 18.4789C73.0501 18.7703 73.2585 19.0223 73.5189 19.2115C73.7794 19.4007 74.0834 19.521 74.4029 19.5611L79.9721 20.2611L75.8771 24.1013C75.6426 24.3218 75.4676 24.5979 75.3682 24.9041C75.2688 25.2102 75.2484 25.5365 75.3087 25.8527L76.3713 31.3603L71.4545 28.6583C71.1723 28.503 70.8554 28.4216 70.5333 28.4216C70.2112 28.4216 69.8943 28.503 69.6121 28.6583L64.6953 31.3603L65.7509 25.8485C65.8112 25.5323 65.7907 25.206 65.6913 24.8999C65.592 24.5937 65.4169 24.3176 65.1825 24.0971L61.0875 20.2569L66.6567 19.5611Z" fill="#EFF3FF"/>
</g>
</svg>
