<svg width="140" height="140" viewBox="0 0 140 140" fill="none" xmlns="http://www.w3.org/2000/svg">
<g id="Frame 5">
<path id="Vector" d="M47.2745 44.8C45.6466 44.9313 44.0187 45.0625 41.9024 45.1938C41.7396 45.1938 41.7396 45.1938 41.5768 45.325L41.4141 45.4563L40.6001 48.6063C40.6001 48.7375 40.6001 48.8688 40.7629 48.8688C40.7629 49 40.9257 49 41.0885 49C42.5536 48.8688 44.5071 48.6063 46.4606 48.475C46.6234 48.475 46.7861 48.3438 46.7861 48.2125L47.6001 45.0625C47.6001 44.9313 47.6001 44.8 47.4373 44.8C47.4373 44.9313 47.4373 44.8 47.2745 44.8Z" fill="#EFF3FF"/>
<path id="Vector_2" d="M61.1199 43.3999C57.7599 43.5749 54.5599 43.7499 51.5199 44.0999C51.3599 44.0999 51.1999 44.2749 51.1999 44.4499L50.3999 48.4749C50.3999 48.6499 50.3999 48.8249 50.5599 48.8249C50.5599 48.9999 50.7199 48.9999 50.8799 48.9999C54.5599 48.6499 57.9199 48.2999 61.2799 48.1249C61.4399 48.1249 61.5999 47.9499 61.5999 47.7749V43.9249C61.5999 43.7499 61.5999 43.7499 61.4399 43.5749C61.2799 43.3999 61.2799 43.3999 61.1199 43.3999Z" fill="#EFF3FF"/>
<path id="Vector_3" d="M74.9211 43.3999C73.3938 43.3999 71.6969 43.3999 69.8302 43.3999C67.9635 43.3999 66.2666 43.3999 64.7393 43.3999C64.5696 43.3999 64.3999 43.5555 64.3999 43.711V47.1332C64.3999 47.2888 64.3999 47.2888 64.5696 47.4443C64.7393 47.5999 64.7393 47.5999 64.909 47.5999C66.4363 47.5999 67.9635 47.5999 69.9999 47.5999C71.8666 47.5999 73.5635 47.5999 75.0908 47.5999C75.2605 47.5999 75.2605 47.5999 75.4302 47.4443C75.4302 47.4443 75.5999 47.2888 75.5999 47.1332V43.711C75.4302 43.5555 75.0908 43.3999 74.9211 43.3999Z" fill="#EFF3FF"/>
<path id="Vector_4" d="M88.4799 44.0999C85.4399 43.7499 82.0799 43.5749 78.8799 43.3999C78.7199 43.3999 78.7199 43.3999 78.5599 43.5749C78.3999 43.7499 78.3999 43.7499 78.3999 43.9249V47.7749C78.3999 47.9499 78.5599 48.1249 78.7199 48.1249C82.0799 48.2999 85.5999 48.4749 89.1199 48.9999C89.2799 48.9999 89.2799 48.9999 89.4399 48.8249C89.5999 48.6499 89.5999 48.6499 89.5999 48.4749L88.7999 44.4499C88.7999 44.2749 88.6399 44.0999 88.4799 44.0999Z" fill="#EFF3FF"/>
<path id="Vector_5" d="M98.4232 45.4788L98.2604 45.3091C96.3069 45.1394 94.5162 44.8 92.8883 44.8C92.7255 44.8 92.5627 44.8001 92.5627 44.9697C92.3999 45.1394 92.3999 45.1394 92.3999 45.3091L93.2139 49.3819C93.2139 49.5516 93.3766 49.7213 93.5394 49.7213C95.3301 49.891 97.2836 50.2304 98.9115 50.4C99.0743 50.4 99.0743 50.4001 99.2371 50.2304C99.3999 50.0607 99.3999 50.0607 99.3999 49.891L98.5859 45.8182C98.5859 45.6485 98.586 45.4788 98.4232 45.4788Z" fill="#EFF3FF"/>
<path id="Vector_6" d="M131.105 101.626C126.684 101.626 124.632 100.353 122.263 98.7612C120.053 97.3289 117.526 95.7374 113.421 95.26C120.053 82.5285 121.789 75.5262 124.158 64.2271C124.947 60.4076 122.579 56.7473 118.789 55.7925C114.684 54.8376 110.737 53.8828 106.632 53.2462V47.517C106.632 42.7427 103.158 38.7641 98.4211 38.2867C95.1053 37.9684 91.7895 37.6501 88.6316 37.3318V33.035C88.6316 30.3295 86.5789 27.9424 83.8947 27.465C81.6842 27.1467 79.3158 26.8284 76.9474 26.6692V21.5767H80.7368C82 21.5767 83.1053 20.4627 83.1053 19.1895C83.1053 17.9164 82 16.8024 80.7368 16.8024H76.9474V16.3249C76.9474 12.6646 74.1053 9.80005 70.4737 9.80005H70C66.3684 9.80005 63.5263 12.6646 63.5263 16.3249V16.8024H59.7368C58.4737 16.8024 57.3684 17.9164 57.3684 19.1895C57.3684 20.4627 58.4737 21.5767 59.7368 21.5767H63.5263V26.6692C61.1579 26.8284 58.9474 27.1467 56.5789 27.465C53.8947 27.9424 51.8421 30.1704 51.8421 33.035V37.3318C48.5263 37.6501 45.2105 37.8093 42.0526 38.2867C37.3158 38.7641 33.8421 42.9019 33.8421 47.517V53.2462C29.7368 54.0419 25.7895 54.8376 21.6842 55.7925C17.8947 56.7473 15.5263 60.4076 16.3158 64.2271C18.6842 75.5262 20.4211 82.5285 27.0526 95.26C22.9474 95.7374 20.4211 97.3289 18.2105 98.7612C15.8421 100.353 13.7895 101.626 9.36842 101.626C8.10526 101.626 7 102.74 7 104.013C7 105.286 8.10526 106.4 9.36842 106.4C15.0526 106.4 18.2105 104.49 20.7368 102.74C23.1053 101.148 25.1579 99.8752 29.579 99.8752C34 99.8752 36.0526 101.148 38.4211 102.74C41.1053 104.49 44.1053 106.4 49.7895 106.4C55.4737 106.4 58.4737 104.49 61.1579 102.74C63.5263 101.148 65.579 99.8752 70 99.8752C74.4211 99.8752 76.4737 101.148 78.8421 102.74C81.5263 104.49 84.5263 106.4 90.2105 106.4C95.8947 106.4 98.8947 104.49 101.579 102.74C103.947 101.148 106 99.8752 110.421 99.8752C114.842 99.8752 116.895 101.148 119.263 102.74C121.947 104.49 124.947 106.4 130.632 106.4C131.895 106.4 133 105.286 133 104.013C133 102.74 132.368 101.626 131.105 101.626ZM68.2632 16.4841C68.2632 15.5292 69.0526 14.7335 70 14.7335H70.4737C71.4211 14.7335 72.2105 15.5292 72.2105 16.4841V16.9615H68.2632V16.4841ZM68.2632 21.7358H72.2105V26.5101C70.9474 26.5101 69.5263 26.5101 68.2632 26.5101V21.7358ZM56.7368 33.035C56.7368 32.7167 57.0526 32.2393 57.3684 32.2393C65.8947 30.9661 74.5789 30.9661 83.1053 32.2393C83.4211 32.2393 83.7368 32.5575 83.7368 33.035V37.0136C74.7368 36.5361 65.7368 36.5361 56.7368 37.0136V33.035ZM67.9474 95.26C63.6842 95.7374 61.1579 97.3289 58.9474 98.7612C56.579 100.353 54.5263 101.626 50.1053 101.626C45.6842 101.626 43.6316 100.353 41.2632 98.7612C39.0526 97.3289 36.6842 95.8966 32.7368 95.26C25.3158 81.5737 23.7368 75.0488 21.2105 63.2722C20.8947 61.9991 21.6842 60.7259 22.9474 60.4076C37.7895 56.7473 52.9474 54.8376 67.9474 54.6785V95.26ZM38.7368 52.4505V47.517C38.7368 45.1299 40.4737 43.2201 42.6842 43.061C61 40.833 79.4737 40.833 97.7895 43.061C100 43.3793 101.737 45.289 101.737 47.517V52.4505C80.8947 49.1085 59.7368 49.1085 38.7368 52.4505ZM107.895 95.26C103.947 95.7374 101.579 97.3289 99.3684 98.7612C97 100.353 94.9474 101.626 90.5263 101.626C86.1053 101.626 84.0526 100.353 81.6842 98.7612C79.4737 97.3289 76.9474 95.7374 72.6842 95.26V54.6785C87.6842 54.8376 102.684 56.7473 117.684 60.4076C118.947 60.7259 119.737 61.9991 119.421 63.2722C116.895 75.208 115.316 81.5737 107.895 95.26Z" fill="#EFF3FF"/>
<path id="Vector_7" d="M130.632 112.868C126.211 112.868 124.158 111.606 121.789 110.028C119.105 108.293 116.105 106.4 110.421 106.4C104.737 106.4 101.737 108.293 99.0526 110.028C96.6842 111.606 94.6316 112.868 90.2105 112.868C85.7895 112.868 83.7368 111.606 81.3684 110.028C78.6842 108.293 75.6842 106.4 70 106.4C64.3158 106.4 61.3158 108.293 58.6316 110.028C56.2632 111.606 54.2105 112.868 49.7895 112.868C45.3684 112.868 43.3158 111.606 40.9474 110.028C38.2632 108.293 35.2632 106.4 29.5789 106.4C23.8947 106.4 20.8947 108.293 18.2105 110.028C15.8421 111.606 13.7895 112.868 9.36842 112.868C8.10526 112.868 7 113.972 7 115.234C7 116.496 8.10526 117.6 9.36842 117.6C15.0526 117.6 18.2105 115.707 20.7368 113.972C23.1053 112.394 25.1579 111.132 29.5789 111.132C34 111.132 36.0526 112.394 38.4211 113.972C41.1053 115.707 44.1053 117.6 49.7895 117.6C55.4737 117.6 58.4737 115.707 61.1579 113.972C63.5263 112.394 65.5789 111.132 70 111.132C74.421 111.132 76.4737 112.394 78.8421 113.972C81.5263 115.707 84.5263 117.6 90.2105 117.6C95.8947 117.6 98.8947 115.707 101.579 113.972C103.947 112.394 106 111.132 110.421 111.132C114.842 111.132 116.895 112.394 119.263 113.972C121.947 115.707 124.947 117.6 130.632 117.6C131.895 117.6 133 116.496 133 115.234C133 113.972 131.895 112.868 130.632 112.868Z" fill="#EFF3FF"/>
<path id="Vector_8" d="M130.632 124.068C126.211 124.068 124.158 122.806 121.789 121.228C119.105 119.493 116.105 117.6 110.421 117.6C104.737 117.6 101.737 119.493 99.0526 121.228C96.6842 122.806 94.6316 124.068 90.2105 124.068C85.7895 124.068 83.7368 122.806 81.3684 121.228C78.6842 119.493 75.6842 117.6 70 117.6C64.3158 117.6 61.3158 119.493 58.6316 121.228C56.2632 122.806 54.2105 124.068 49.7895 124.068C45.3684 124.068 43.3158 122.806 40.9474 121.228C38.2632 119.493 35.2632 117.6 29.5789 117.6C23.8947 117.6 20.8947 119.493 18.2105 121.228C15.8421 122.806 13.7895 124.068 9.36842 124.068C8.10526 124.068 7 125.172 7 126.434C7 127.696 8.10526 128.8 9.36842 128.8C15.0526 128.8 18.2105 126.907 20.7368 125.172C23.1053 123.594 25.1579 122.332 29.5789 122.332C34 122.332 36.0526 123.594 38.4211 125.172C41.1053 126.907 44.1053 128.8 49.7895 128.8C55.4737 128.8 58.4737 126.907 61.1579 125.172C63.5263 123.594 65.5789 122.332 70 122.332C74.421 122.332 76.4737 123.594 78.8421 125.172C81.5263 126.907 84.5263 128.8 90.2105 128.8C95.8947 128.8 98.8947 126.907 101.579 125.172C103.947 123.594 106 122.332 110.421 122.332C114.842 122.332 116.895 123.594 119.263 125.172C121.947 126.907 124.947 128.8 130.632 128.8C131.895 128.8 133 127.696 133 126.434C133 125.172 131.895 124.068 130.632 124.068Z" fill="#EFF3FF"/>
<path id="Vector_9" d="M78.4001 35.4869V33.4782C78.4001 32.9304 78.0918 32.5652 77.6295 32.5652C75.0093 32.2 72.5432 32.2 69.923 32.2C67.457 32.2 64.8368 32.3826 62.3707 32.5652C61.9084 32.5652 61.6001 33.113 61.6001 33.4782V35.4869C61.6001 36.0347 61.9084 36.4 62.3707 36.4C64.8368 36.2173 67.457 36.2173 69.923 36.2173C72.3891 36.2173 75.0093 36.2173 77.4753 36.4C78.0918 36.4 78.4001 36.0347 78.4001 35.4869Z" fill="#EFF3FF"/>
</g>
</svg>
